# xmcd
#
# Track frame offsets:
#	150
#	18210
#	33652
#	54417
#	71880
#	82587
#	95487
#	114462
#	135417
#	157775
#	171245
#	188765
#	205887
#	226187
#	245567
#	259730
#
# Disc length: 3629
#
# Revision: 3
# Processed by: cddbd v1.5.1PL0 Copyright (c) Steve Scherf et al.
# Submitted via: FreeRIP 2.52 
# Normalized: r2:TDELIM( - )
#
DISCID=c80e2b10
DTITLE=Various Artist - Roll Up The Rug   Vol. 1
DYEAR=1900
DGENRE=Blues
TTITLE0=Charles Brown - Seven Long Days
TTITLE1=Katie Webster - Two-Fisted Mama
TTITLE2=Lonnie Mack - Satisfy Susie
TTITLE3=Katie Webster - Black Satin
TTITLE4=Irma Thomas - Don't Mess With My Man
TTITLE5=Elvin Bishop - No Broken Hearts
TTITLE6=Professor Longhair - Red Beans
TTITLE7=Prof.'s Blues Review - Meet Me With Your Black Drawers On
TTITLE8=Albert Collins, Robert Cray, Johnny Copeland - T-Bone Shuffle
TTITLE9=Marcia Ball - I'm Gonna Forget About You
TTITLE10=Johnny Heartsman - Walkin' Blues
TTITLE11=Eddie Hinton - Good Times
TTITLE12=Little Charlie and The Nightcats - Don't Do It
TTITLE13=Albert Collins - A Good Fool Is Hard To Find
TTITLE14=Koko Taylor - Sure Had A Wonderful Time Last Night
TTITLE15=Elvin Bishop - Soul Food
EXTD=
EXTT0=
EXTT1=
EXTT2=
EXTT3=
EXTT4=
EXTT5=
EXTT6=
EXTT7=
EXTT8=
EXTT9=
EXTT10=
EXTT11=
EXTT12=
EXTT13=
EXTT14=
EXTT15=
PLAYORDER=
